<?xml version="1.0" encoding="UTF-8"?>
<svg version="1.1" xmlns="http://www.w3.org/2000/svg" width="512" height="512">
<path d="M0 0 C147.18 0 294.36 0 446 0 C446 10.89 446 21.78 446 33 C456.89 33 467.78 33 479 33 C479 136.29 479 239.58 479 346 C468.11 346 457.22 346 446 346 C446 356.89 446 367.78 446 379 C372.41 379 298.82 379 223 379 C223 389.89 223 400.78 223 412 C212.11 412 201.22 412 190 412 C190 423.22 190 434.44 190 446 C179.11 446 168.22 446 157 446 C157 456.89 157 467.78 157 479 C145.78 479 134.56 479 123 479 C123 489.89 123 500.78 123 512 C100.89 512 78.78 512 56 512 C56 468.11 56 424.22 56 379 C37.52 379 19.04 379 0 379 C0 368.11 0 357.22 0 346 C-10.89 346 -21.78 346 -33 346 C-33 242.71 -33 139.42 -33 33 C-22.11 33 -11.22 33 0 33 C0 22.11 0 11.22 0 0 Z M1 34 C1 136.63 1 239.26 1 345 C30.37 345 59.74 345 90 345 C90 388.89 90 432.78 90 478 C100.56 478 111.12 478 122 478 C122 467.11 122 456.22 122 445 C133.22 445 144.44 445 156 445 C156 433.78 156 422.56 156 411 C166.89 411 177.78 411 189 411 C189 400.11 189 389.22 189 378 C200.22 378 211.44 378 223 378 C223 367.11 223 356.22 223 345 C296.26 345 369.52 345 445 345 C445 242.37 445 139.74 445 34 C298.48 34 151.96 34 1 34 Z " fill="#000000" transform="translate(33,0)"/>
<path d="M0 0 C22.44 0 44.88 0 68 0 C68 22.44 68 44.88 68 68 C45.56 68 23.12 68 0 68 C0 45.56 0 23.12 0 0 Z " fill="#000000" transform="translate(222,155)"/>
<path d="M0 0 C22.11 0 44.22 0 67 0 C67 22.44 67 44.88 67 68 C44.89 68 22.78 68 0 68 C0 45.56 0 23.12 0 0 Z " fill="#000000" transform="translate(345,155)"/>
<path d="M0 0 C22.11 0 44.22 0 67 0 C67 22.44 67 44.88 67 68 C44.89 68 22.78 68 0 68 C0 45.56 0 23.12 0 0 Z " fill="#000000" transform="translate(100,155)"/>
</svg>
