<?xml version="1.0" encoding="UTF-8"?>
<svg version="1.1" xmlns="http://www.w3.org/2000/svg" width="512" height="512">
<path d="M0 0 C129.36 0 258.72 0 392 0 C392 9.9 392 19.8 392 30 C401.9 30 411.8 30 422 30 C422 179.16 422 328.32 422 482 C412.1 482 402.2 482 392 482 C392 491.9 392 501.8 392 512 C262.64 512 133.28 512 0 512 C0 502.1 0 492.2 0 482 C-9.9 482 -19.8 482 -30 482 C-30 452.3 -30 422.6 -30 392 C-39.9 392 -49.8 392 -60 392 C-60 382.1 -60 372.2 -60 362 C-69.9 362 -79.8 362 -90 362 C-90 351.77 -90 341.54 -90 331 C-80.1 331 -70.2 331 -60 331 C-60 321.1 -60 311.2 -60 301 C-50.1 301 -40.2 301 -30 301 C-30 291.43 -30 281.86 -30 272 C-39.9 272 -49.8 272 -60 272 C-60 261.77 -60 251.54 -60 241 C-69.9 241 -79.8 241 -90 241 C-90 230.77 -90 220.54 -90 210 C-80.1 210 -70.2 210 -60 210 C-60 200.1 -60 190.2 -60 180 C-50.1 180 -40.2 180 -30 180 C-30 170.43 -30 160.86 -30 151 C-39.9 151 -49.8 151 -60 151 C-60 141.1 -60 131.2 -60 121 C-69.9 121 -79.8 121 -90 121 C-90 110.77 -90 100.54 -90 90 C-80.1 90 -70.2 90 -60 90 C-60 80.1 -60 70.2 -60 60 C-50.1 60 -40.2 60 -30 60 C-30 50.1 -30 40.2 -30 30 C-20.1 30 -10.2 30 0 30 C0 20.1 0 10.2 0 0 Z " fill="#326C17" transform="translate(90,0)"/>
<path d="M0 0 C119.13 0 238.26 0 361 0 C361.020625 54.594375 361.04125 109.18875 361.0625 165.4375 C361.071604 182.70892334 361.08070801 199.98034668 361.09008789 217.77514648 C361.09460449 238.78137207 361.09460449 238.78137207 361.09544373 248.59901428 C361.0963796 255.49147377 361.10006182 262.38392524 361.10557556 269.27638245 C361.11191695 277.21510385 361.11484159 285.1538175 361.11344495 293.09254146 C361.11283952 297.15817129 361.11383487 301.22378378 361.11921513 305.28941047 C361.12404166 308.95868798 361.1243496 312.6279357 361.12090111 316.29721451 C361.1202695 318.26698259 361.12461468 320.23675028 361.12908077 322.2065134 C361.1270899 323.36187281 361.12509903 324.51723221 361.12304783 325.7076025 C361.12342755 326.71272222 361.12380727 327.71784193 361.1241985 328.75341982 C361 331 361 331 360 332 C358.15881971 332.09381302 356.31402359 332.11743954 354.47045898 332.11352539 C353.28931015 332.11344986 352.10816132 332.11337433 350.89122009 332.11329651 C349.6058284 332.10813522 348.32043671 332.10297394 346.99609375 332.09765625 C345.0338662 332.09553383 345.0338662 332.09553383 343.03199768 332.09336853 C339.54837141 332.0895441 336.06478661 332.07971446 332.58117676 332.06866455 C329.02873302 332.05844882 325.47628241 332.05381586 321.92382812 332.04882812 C314.94918209 332.03862232 307.97465003 332.01905064 301 332 C301 321.77 301 311.54 301 301 C270.97 301 240.94 301 210 301 C210 311.23 210 321.46 210 332 C200.1 332 190.2 332 180 332 C180 321.77 180 311.54 180 301 C149.97 301 119.94 301 89 301 C89 310.9 89 320.8 89 331 C69.53 331 50.06 331 30 331 C30 311.2 30 291.4 30 271 C20.1 271 10.2 271 0 271 C0 280.9 0 290.8 0 301 C-30.03 301 -60.06 301 -91 301 C-91 291.1 -91 281.2 -91 271 C-61.3 271 -31.6 271 -1 271 C-1 261.1 -1 251.2 -1 241 C-10.9 241 -20.8 241 -31 241 C-31 231.1 -31 221.2 -31 211 C-10.87 211 9.26 211 30 211 C30 191.2 30 171.4 30 151 C20.1 151 10.2 151 0 151 C-0.33 141.1 -0.66 131.2 -1 121 C-10.57 120.67 -20.14 120.34 -30 120 C-30 110.43 -30 100.86 -30 91 C-20.1 91 -10.2 91 0 91 C0 81.1 0 71.2 0 61 C9.9 61 19.8 61 30 61 C29.835 56.483125 29.67 51.96625 29.5 47.3125 C28.96978875 31.86252586 28.92307791 16.46134072 29 1 C19.43 1 9.86 1 0 1 C0 0.67 0 0.34 0 0 Z " fill="#6FBD6A" transform="translate(121,60)"/>
<path d="M0 0 C9.9 0 19.8 0 30 0 C30 9.9 30 19.8 30 30 C34.516875 29.979375 39.03375 29.95875 43.6875 29.9375 C59.14602434 29.90346136 74.55531177 30.34669785 90 31 C90.84716472 51.02778518 91.09154665 70.95128258 91 91 C81.1 91 71.2 91 61 91 C61 100.9 61 110.8 61 121 C51.1 121 41.2 121 31 121 C31 130.57 31 140.14 31 150 C40.49892964 149.96040374 40.49892964 149.96040374 49.99780273 149.90991211 C51.17286377 149.90741455 52.3479248 149.90491699 53.55859375 149.90234375 C55.37315063 149.89448853 55.37315063 149.89448853 57.22436523 149.88647461 C60 150 60 150 61 151 C61.08783542 153.21855264 61.10694609 155.43988496 61.09765625 157.66015625 C61.09515869 158.87582275 61.09266113 160.09148926 61.09008789 161.34399414 C61.08098389 162.90110107 61.07187988 164.45820801 61.0625 166.0625 C61.041875 170.991875 61.02125 175.92125 61 181 C70.9 181 80.8 181 91 181 C91 200.8 91 220.6 91 241 C70.87 241 50.74 241 30 241 C30 250.9 30 260.8 30 271 C39.9 271 49.8 271 60 271 C60 280.9 60 290.8 60 301 C30.3 301 0.6 301 -30 301 C-30 291.1 -30 281.2 -30 271 C-20.1 271 -10.2 271 0 271 C0 261.43 0 251.86 0 242 C-9.9 242 -19.8 242 -30 242 C-30 231.77 -30 221.54 -30 211 C-39.9 211 -49.8 211 -60 211 C-60 200.77 -60 190.54 -60 180 C-50.1 180 -40.2 180 -30 180 C-30 170.1 -30 160.2 -30 150 C-20.1 150 -10.2 150 0 150 C0 140.43 0 130.86 0 121 C-9.9 121 -19.8 121 -30 121 C-30 111.1 -30 101.2 -30 91 C-39.9 91 -49.8 91 -60 91 C-60 80.77 -60 70.54 -60 60 C-50.1 60 -40.2 60 -30 60 C-30 50.1 -30 40.2 -30 30 C-20.1 30 -10.2 30 0 30 C0 20.1 0 10.2 0 0 Z " fill="#000000" transform="translate(60,30)"/>
<path d="M0 0 C129.36 0 258.72 0 392 0 C392 19.8 392 39.6 392 60 C262.64 60 133.28 60 0 60 C0 40.2 0 20.4 0 0 Z " fill="#B2DBB0" transform="translate(90,0)"/>
<path d="M0 0 C20.13 0 40.26 0 61 0 C61 9.9 61 19.8 61 30 C70.9 30 80.8 30 91 30 C91 50.13 91 70.26 91 91 C81.1 91 71.2 91 61 91 C61 100.9 61 110.8 61 121 C50.77 121 40.54 121 30 121 C30 130.9 30 140.8 30 151 C20.1 151 10.2 151 0 151 C0 160.9 0 170.8 0 181 C-9.9 181 -19.8 181 -30 181 C-30 171.1 -30 161.2 -30 151 C-39.9 151 -49.8 151 -60 151 C-60 141.1 -60 131.2 -60 121 C-69.9 121 -79.8 121 -90 121 C-90 111.1 -90 101.2 -90 91 C-99.9 91 -109.8 91 -120 91 C-120 71.2 -120 51.4 -120 31 C-98.74233105 30.75043408 -98.74233105 30.75043408 -89.47265625 30.64453125 C-83.22020289 30.57308963 -76.96775479 30.50132398 -70.71533203 30.42724609 C-47.14165193 30.14839147 -23.57566871 29.93896267 0 30 C0 20.1 0 10.2 0 0 Z " fill="#FD6278" transform="translate(331,90)"/>
<path d="M0 0 C30.03 0 60.06 0 91 0 C91 10.23 91 20.46 91 31 C100.9 31 110.8 31 121 31 C121 20.77 121 10.54 121 0 C151.03 0 181.06 0 212 0 C212 10.23 212 20.46 212 31 C231.8 30.67 251.6 30.34 272 30 C272 40.23 272 50.46 272 61 C142.97 61 13.94 61 -119 61 C-119 51.1 -119 41.2 -119 31 C-109.1 31 -99.2 31 -89 31 C-89 21.1 -89 11.2 -89 1 C-79.1 1 -69.2 1 -59 1 C-59 10.57 -59 20.14 -59 30 C-39.53 30 -20.06 30 0 30 C0 20.1 0 10.2 0 0 Z " fill="#499E45" transform="translate(210,361)"/>
<path d="M0 0 C9.9 0 19.8 0 30 0 C30 149.16 30 298.32 30 452 C20.1 452 10.2 452 0 452 C0 302.84 0 153.68 0 0 Z " fill="#000000" transform="translate(482,30)"/>
<path d="M0 0 C129.36 0 258.72 0 392 0 C392 9.9 392 19.8 392 30 C262.64 30 133.28 30 0 30 C0 20.1 0 10.2 0 0 Z " fill="#000000" transform="translate(90,482)"/>
<path d="M0 0 C129.36 0 258.72 0 392 0 C392 9.9 392 19.8 392 30 C262.64 30 133.28 30 0 30 C0 20.1 0 10.2 0 0 Z " fill="#000000" transform="translate(90,0)"/>
<path d="M0 0 C129.03 0 258.06 0 391 0 C391 9.9 391 19.8 391 30 C261.97 30 132.94 30 0 30 C0 20.1 0 10.2 0 0 Z " fill="#FDE6CA" transform="translate(91,452)"/>
<path d="M0 0 C9.9 0 19.8 0 30 0 C30 9.9 30 19.8 30 30 C34.516875 29.979375 39.03375 29.95875 43.6875 29.9375 C59.14602434 29.90346136 74.55531177 30.34669785 90 31 C90.84716472 51.02778518 91.09154665 70.95128258 91 91 C81.1 91 71.2 91 61 91 C61 100.9 61 110.8 61 121 C51.1 121 41.2 121 31 121 C31 130.57 31 140.14 31 150 C40.57 150 50.14 150 60 150 C60 150.33 60 150.66 60 151 C50.1 151 40.2 151 30 151 C30 140.77 30 130.54 30 120 C39.9 120 49.8 120 60 120 C60 110.43 60 100.86 60 91 C20.4 91 -19.2 91 -60 91 C-60 80.77 -60 70.54 -60 60 C-50.1 60 -40.2 60 -30 60 C-30 50.1 -30 40.2 -30 30 C-20.1 30 -10.2 30 0 30 C0 20.1 0 10.2 0 0 Z " fill="#4A9F46" transform="translate(60,30)"/>
<path d="M0 0 C29.7 0 59.4 0 90 0 C90 9.9 90 19.8 90 30 C80.1 30 70.2 30 60 30 C60 39.9 60 49.8 60 60 C69.9 60 79.8 60 90 60 C90 69.9 90 79.8 90 90 C60.3 90 30.6 90 0 90 C0 80.1 0 70.2 0 60 C9.9 60 19.8 60 30 60 C30 50.43 30 40.86 30 31 C20.1 31 10.2 31 0 31 C0 20.77 0 10.54 0 0 Z " fill="#000000" transform="translate(30,241)"/>
<path d="M0 0 C29.7 0 59.4 0 90 0 C90 9.57 90 19.14 90 29 C80.1 29 70.2 29 60 29 C60 59.03 60 89.06 60 120 C50.1 120 40.2 120 30 120 C30 90.3 30 60.6 30 30 C20.1 30 10.2 30 0 30 C0 20.1 0 10.2 0 0 Z " fill="#000000" transform="translate(30,362)"/>
<path d="M0 0 C49.83 0 99.66 0 151 0 C151 9.9 151 19.8 151 30 C101.17 30 51.34 30 0 30 C0 20.1 0 10.2 0 0 Z " fill="#306C15" transform="translate(271,301)"/>
<path d="M0 0 C9.9 0 19.8 0 30 0 C30 10.23 30 20.46 30 31 C39.9 31 49.8 31 60 31 C60 40.57 60 50.14 60 60 C30.3 60 0.6 60 -30 60 C-30 50.1 -30 40.2 -30 30 C-20.1 30 -10.2 30 0 30 C0 20.1 0 10.2 0 0 Z " fill="#000000" transform="translate(60,30)"/>
<path d="M0 0 C29.7 0 59.4 0 90 0 C90 9.9 90 19.8 90 30 C60.3 30 30.6 30 0 30 C0 20.1 0 10.2 0 0 Z " fill="#306C15" transform="translate(211,362)"/>
<path d="M0 0 C29.7 0 59.4 0 90 0 C90 9.9 90 19.8 90 30 C60.3 30 30.6 30 0 30 C0 20.1 0 10.2 0 0 Z " fill="#FEE7CA" transform="translate(30,211)"/>
<path d="M0 0 C29.7 0 59.4 0 90 0 C90 9.9 90 19.8 90 30 C60.3 30 30.6 30 0 30 C0 20.1 0 10.2 0 0 Z " fill="#FBE5C8" transform="translate(30,90)"/>
<path d="M0 0 C29.37 0 58.74 0 89 0 C89 9.9 89 19.8 89 30 C59.63 30 30.26 30 0 30 C0 20.1 0 10.2 0 0 Z " fill="#306C15" transform="translate(332,362)"/>
<path d="M0 0 C29.7 0 59.4 0 90 0 C90 9.57 90 19.14 90 29 C60.3 29 30.6 29 0 29 C0 19.43 0 9.86 0 0 Z " fill="#FEE7CA" transform="translate(30,332)"/>
<path d="M0 0 C10.23 0 20.46 0 31 0 C31 19.8 31 39.6 31 60 C20.77 60 10.54 60 0 60 C0 40.2 0 20.4 0 0 Z " fill="#4A9B46" transform="translate(120,211)"/>
<path d="M0 0 C9.9 0 19.8 0 30 0 C30 20.13 30 40.26 30 61 C20.1 61 10.2 61 0 61 C0 40.87 0 20.74 0 0 Z " fill="#942D3B" transform="translate(392,120)"/>
<path d="M0 0 C20.13 0 40.26 0 61 0 C61 9.9 61 19.8 61 30 C40.87 30 20.74 30 0 30 C0 20.1 0 10.2 0 0 Z " fill="#942D3B" transform="translate(331,90)"/>
<path d="M0 0 C19.8 0 39.6 0 60 0 C60 9.9 60 19.8 60 30 C40.2 30 20.4 30 0 30 C0 20.1 0 10.2 0 0 Z " fill="#FEA5B1" transform="translate(241,121)"/>
<path d="M0 0 C9.9 0 19.8 0 30 0 C30 19.8 30 39.6 30 60 C20.1 60 10.2 60 0 60 C0 40.2 0 20.4 0 0 Z " fill="#952A3A" transform="translate(211,121)"/>
<path d="M0 0 C19.8 0 39.6 0 60 0 C60 9.9 60 19.8 60 30 C40.2 30 20.4 30 0 30 C0 20.1 0 10.2 0 0 Z " fill="#942B3A" transform="translate(241,90)"/>
<path d="M0 0 C19.47 0 38.94 0 59 0 C59 9.9 59 19.8 59 30 C39.53 30 20.06 30 0 30 C0 20.1 0 10.2 0 0 Z " fill="#FFA5B1" transform="translate(332,121)"/>
<path d="M0 0 C10.23 0 20.46 0 31 0 C31 9.9 31 19.8 31 30 C21.1 30 11.2 30 1 30 C1 39.9 1 49.8 1 60 C0.67 60 0.34 60 0 60 C0 50.43 0 40.86 0 31 C-29.7 31 -59.4 31 -90 31 C-90 30.67 -90 30.34 -90 30 C-60.3 30 -30.6 30 0 30 C0 20.1 0 10.2 0 0 Z " fill="#549C4C" transform="translate(120,301)"/>
<path d="M0 0 C9.9 0 19.8 0 30 0 C30 10.23 30 20.46 30 31 C20.1 31 10.2 31 0 31 C0 20.77 0 10.54 0 0 Z " fill="#4BA047" transform="translate(151,331)"/>
<path d="M0 0 C9.9 0 19.8 0 30 0 C30 10.23 30 20.46 30 31 C20.1 31 10.2 31 0 31 C0 20.77 0 10.54 0 0 Z " fill="#000000" transform="translate(0,331)"/>
<path d="M0 0 C9.9 0 19.8 0 30 0 C30 10.23 30 20.46 30 31 C20.1 31 10.2 31 0 31 C0 20.77 0 10.54 0 0 Z " fill="#4BA047" transform="translate(151,90)"/>
<path d="M0 0 C9.9 0 19.8 0 30 0 C30 10.23 30 20.46 30 31 C20.1 31 10.2 31 0 31 C0 20.77 0 10.54 0 0 Z " fill="#000000" transform="translate(0,90)"/>
<path d="M0 0 C9.9 0 19.8 0 30 0 C30 9.9 30 19.8 30 30 C20.1 30 10.2 30 0 30 C0 20.1 0 10.2 0 0 Z " fill="#306C15" transform="translate(211,301)"/>
<path d="M0 0 C9.9 0 19.8 0 30 0 C30 9.9 30 19.8 30 30 C20.1 30 10.2 30 0 30 C0 20.1 0 10.2 0 0 Z " fill="#499C45" transform="translate(90,271)"/>
<path d="M0 0 C9.9 0 19.8 0 30 0 C30 9.9 30 19.8 30 30 C20.1 30 10.2 30 0 30 C0 20.1 0 10.2 0 0 Z " fill="#942A3A" transform="translate(301,241)"/>
<path d="M0 0 C9.9 0 19.8 0 30 0 C30 9.9 30 19.8 30 30 C20.1 30 10.2 30 0 30 C0 20.1 0 10.2 0 0 Z " fill="#952A3A" transform="translate(331,211)"/>
<path d="M0 0 C9.9 0 19.8 0 30 0 C30 9.9 30 19.8 30 30 C20.1 30 10.2 30 0 30 C0 20.1 0 10.2 0 0 Z " fill="#942A3A" transform="translate(271,211)"/>
<path d="M0 0 C9.9 0 19.8 0 30 0 C30 9.9 30 19.8 30 30 C20.1 30 10.2 30 0 30 C0 20.1 0 10.2 0 0 Z " fill="#4A9F46" transform="translate(151,211)"/>
<path d="M0 0 C9.9 0 19.8 0 30 0 C30 9.9 30 19.8 30 30 C20.1 30 10.2 30 0 30 C0 20.1 0 10.2 0 0 Z " fill="#010201" transform="translate(121,211)"/>
<path d="M0 0 C9.9 0 19.8 0 30 0 C30 9.9 30 19.8 30 30 C20.1 30 10.2 30 0 30 C0 20.1 0 10.2 0 0 Z " fill="#942D3B" transform="translate(362,181)"/>
<path d="M0 0 C9.9 0 19.8 0 30 0 C30 9.9 30 19.8 30 30 C20.1 30 10.2 30 0 30 C0 20.1 0 10.2 0 0 Z " fill="#942A3A" transform="translate(241,181)"/>
<path d="M0 0 C9.9 0 19.8 0 30 0 C30 9.9 30 19.8 30 30 C20.1 30 10.2 30 0 30 C0 20.1 0 10.2 0 0 Z " fill="#4A9E46" transform="translate(121,181)"/>
<path d="M0 0 C9.9 0 19.8 0 30 0 C30 9.9 30 19.8 30 30 C20.1 30 10.2 30 0 30 C0 20.1 0 10.2 0 0 Z " fill="#FEA4B1" transform="translate(301,151)"/>
<path d="M0 0 C9.9 0 19.8 0 30 0 C30 9.9 30 19.8 30 30 C20.1 30 10.2 30 0 30 C0 20.1 0 10.2 0 0 Z " fill="#952D3B" transform="translate(301,120)"/>
<path d="M0 0 C9.9 0 19.8 0 30 0 C30 9.9 30 19.8 30 30 C20.1 30 10.2 30 0 30 C0 20.1 0 10.2 0 0 Z " fill="#4A9F46" transform="translate(121,121)"/>
<path d="M0 0 C9.57 0 19.14 0 29 0 C29 9.57 29 19.14 29 29 C19.43 29 9.86 29 0 29 C0 19.43 0 9.86 0 0 Z " fill="#000000" transform="translate(121,332)"/>
<path d="M0 0 C9.57 0 19.14 0 29 0 C29 9.57 29 19.14 29 29 C19.43 29 9.86 29 0 29 C0 19.43 0 9.86 0 0 Z " fill="#4A9F46" transform="translate(91,151)"/>
<path d="M0 0 C9.57 0 19.14 0 29 0 C29 9.57 29 19.14 29 29 C19.43 29 9.86 29 0 29 C0 19.43 0 9.86 0 0 Z " fill="#000000" transform="translate(121,91)"/>
<path d="M0 0 C10.23 0 20.46 0 31 0 C31 9.9 31 19.8 31 30 C40.9 30 50.8 30 61 30 C61 40.23 61 50.46 61 61 C51.1 61 41.2 61 31 61 C31 70.9 31 80.8 31 91 C21.1 91 11.2 91 1 91 C1 100.57 1 110.14 1 120 C10.57 120 20.14 120 30 120 C30 120.33 30 120.66 30 121 C20.1 121 10.2 121 0 121 C0 110.77 0 100.54 0 90 C9.9 90 19.8 90 30 90 C30 80.43 30 70.86 30 61 C0.3 61 -29.4 61 -60 61 C-60 60.67 -60 60.34 -60 60 C-30.3 60 -0.6 60 30 60 C30 40.53 30 21.06 30 1 C20.1 1 10.2 1 0 1 C0 0.67 0 0.34 0 0 Z M31 31 C31 40.57 31 50.14 31 60 C40.57 60 50.14 60 60 60 C60 50.43 60 40.86 60 31 C50.43 31 40.86 31 31 31 Z " fill="#3F5737" transform="translate(90,60)"/>
</svg>
