<?xml version="1.0" encoding="UTF-8"?>
<svg version="1.1" xmlns="http://www.w3.org/2000/svg" width="512" height="512">
<path d="M0 0 C59.4 0 118.8 0 180 0 C180 10.89 180 21.78 180 33 C201.78 33 223.56 33 246 33 C246 43.89 246 54.78 246 66 C257.22 66 268.44 66 280 66 C280 77.22 280 88.44 280 100 C290.89 100 301.78 100 313 100 C313 121.78 313 143.56 313 166 C323.89 166 334.78 166 346 166 C346 225.4 346 284.8 346 346 C335.11 346 324.22 346 313 346 C313 367.78 313 389.56 313 412 C302.11 412 291.22 412 280 412 C280 423.22 280 434.44 280 446 C268.78 446 257.56 446 246 446 C246 456.89 246 467.78 246 479 C224.22 479 202.44 479 180 479 C180 489.89 180 500.78 180 512 C120.6 512 61.2 512 0 512 C0 501.11 0 490.22 0 479 C-21.78 479 -43.56 479 -66 479 C-66 468.11 -66 457.22 -66 446 C-77.22 446 -88.44 446 -100 446 C-100 434.78 -100 423.56 -100 412 C-110.89 412 -121.78 412 -133 412 C-133 390.22 -133 368.44 -133 346 C-143.89 346 -154.78 346 -166 346 C-166 286.6 -166 227.2 -166 166 C-155.11 166 -144.22 166 -133 166 C-133 144.22 -133 122.44 -133 100 C-122.11 100 -111.22 100 -100 100 C-100 88.78 -100 77.56 -100 66 C-88.78 66 -77.56 66 -66 66 C-66 55.11 -66 44.22 -66 33 C-44.22 33 -22.44 33 0 33 C0 22.11 0 11.22 0 0 Z " fill="#FEDD45" transform="translate(166,0)"/>
<path d="M0 0 C59.4 0 118.8 0 180 0 C180 10.89 180 21.78 180 33 C201.78 33 223.56 33 246 33 C246 43.89 246 54.78 246 66 C257.22 66 268.44 66 280 66 C280 77.22 280 88.44 280 100 C290.89 100 301.78 100 313 100 C313 121.78 313 143.56 313 166 C323.89 166 334.78 166 346 166 C346 225.4 346 284.8 346 346 C335.11 346 324.22 346 313 346 C313 367.78 313 389.56 313 412 C302.11 412 291.22 412 280 412 C280 423.22 280 434.44 280 446 C268.78 446 257.56 446 246 446 C246 456.89 246 467.78 246 479 C224.22 479 202.44 479 180 479 C180 489.89 180 500.78 180 512 C120.6 512 61.2 512 0 512 C0 501.11 0 490.22 0 479 C-21.78 479 -43.56 479 -66 479 C-66 468.11 -66 457.22 -66 446 C-77.22 446 -88.44 446 -100 446 C-100 434.78 -100 423.56 -100 412 C-110.89 412 -121.78 412 -133 412 C-133 390.22 -133 368.44 -133 346 C-143.89 346 -154.78 346 -166 346 C-166 286.6 -166 227.2 -166 166 C-155.11 166 -144.22 166 -133 166 C-133 144.22 -133 122.44 -133 100 C-122.11 100 -111.22 100 -100 100 C-100 88.78 -100 77.56 -100 66 C-88.78 66 -77.56 66 -66 66 C-66 55.11 -66 44.22 -66 33 C-44.22 33 -22.44 33 0 33 C0 22.11 0 11.22 0 0 Z M1 34 C1 44.89 1 55.78 1 67 C-21.11 67 -43.22 67 -66 67 C-66 77.89 -66 88.78 -66 100 C-76.89 100 -87.78 100 -99 100 C-99 122.11 -99 144.22 -99 167 C-109.89 167 -120.78 167 -132 167 C-132 225.74 -132 284.48 -132 345 C-121.11 345 -110.22 345 -99 345 C-99 367.11 -99 389.22 -99 412 C-88.11 412 -77.22 412 -66 412 C-66 422.89 -66 433.78 -66 445 C-43.89 445 -21.78 445 1 445 C1 455.89 1 466.78 1 478 C59.74 478 118.48 478 179 478 C179 467.11 179 456.22 179 445 C201.11 445 223.22 445 246 445 C246 434.11 246 423.22 246 412 C256.89 412 267.78 412 279 412 C279 389.89 279 367.78 279 345 C289.89 345 300.78 345 312 345 C312 286.26 312 227.52 312 167 C301.11 167 290.22 167 279 167 C279 144.89 279 122.78 279 100 C268.11 100 257.22 100 246 100 C246 89.11 246 78.22 246 67 C223.89 67 201.78 67 179 67 C179 56.11 179 45.22 179 34 C120.26 34 61.52 34 1 34 Z " fill="#110F04" transform="translate(166,0)"/>
<path d="M0 0 C10.89 0 21.78 0 33 0 C33 14.52 33 29.04 33 44 C47.85 44 62.7 44 78 44 C78 55.22 78 66.44 78 78 C88.89 78 99.78 78 111 78 C111 88.89 111 99.78 111 111 C99.78 111 88.56 111 77 111 C77 100.11 77 89.22 77 78 C40.7 78 4.4 78 -33 78 C-33 103.74 -33 129.48 -33 156 C3.63 156 40.26 156 78 156 C78 166.89 78 177.78 78 189 C88.89 189 99.78 189 111 189 C111 218.37 111 247.74 111 278 C100.11 278 89.22 278 78 278 C78 289.22 78 300.44 78 312 C63.15 312 48.3 312 33 312 C33 326.52 33 341.04 33 356 C22.11 356 11.22 356 0 356 C0 341.48 0 326.96 0 312 C-11.22 312 -22.44 312 -34 312 C-34 300.78 -34 289.56 -34 278 C-44.89 278 -55.78 278 -67 278 C-67 267.11 -67 256.22 -67 245 C-55.78 245 -44.56 245 -33 245 C-33 255.89 -33 266.78 -33 278 C3.3 278 39.6 278 77 278 C77 248.63 77 219.26 77 189 C40.37 189 3.74 189 -34 189 C-34 178.11 -34 167.22 -34 156 C-44.89 156 -55.78 156 -67 156 C-67 130.26 -67 104.52 -67 78 C-56.11 78 -45.22 78 -34 78 C-34 66.78 -34 55.56 -34 44 C-22.78 44 -11.56 44 0 44 C0 29.48 0 14.96 0 0 Z " fill="#040401" transform="translate(234,78)"/>
<path d="M0 0 C10.89 0 21.78 0 33 0 C33 58.74 33 117.48 33 178 C22.11 178 11.22 178 0 178 C0 119.26 0 60.52 0 0 Z " fill="#000000" transform="translate(0,167)"/>
<path d="M0 0 C58.74 0 117.48 0 178 0 C178 10.89 178 21.78 178 33 C119.26 33 60.52 33 0 33 C0 22.11 0 11.22 0 0 Z " fill="#000000" transform="translate(167,0)"/>
<path d="M0 0 C10.89 0 21.78 0 33 0 C33 29.37 33 58.74 33 89 C22.11 89 11.22 89 0 89 C0 59.63 0 30.26 0 0 Z " fill="#000000" transform="translate(312,267)"/>
<path d="M0 0 C21.78 0 43.56 0 66 0 C66 10.56 66 21.12 66 32 C44.22 32 22.44 32 0 32 C0 21.44 0 10.88 0 0 Z " fill="#000000" transform="translate(345,446)"/>
<path d="M0 0 C21.78 0 43.56 0 66 0 C66 10.56 66 21.12 66 32 C44.22 32 22.44 32 0 32 C0 21.44 0 10.88 0 0 Z " fill="#000000" transform="translate(101,446)"/>
<path d="M0 0 C10.56 0 21.12 0 32 0 C32 21.78 32 43.56 32 66 C21.44 66 10.88 66 0 66 C0 44.22 0 22.44 0 0 Z " fill="#000000" transform="translate(446,345)"/>
<path d="M0 0 C10.56 0 21.12 0 32 0 C32 21.78 32 43.56 32 66 C21.44 66 10.88 66 0 66 C0 44.22 0 22.44 0 0 Z " fill="#000000" transform="translate(34,345)"/>
<path d="M0 0 C10.56 0 21.12 0 32 0 C32 21.78 32 43.56 32 66 C21.44 66 10.88 66 0 66 C0 44.22 0 22.44 0 0 Z " fill="#000000" transform="translate(446,101)"/>
<path d="M0 0 C10.56 0 21.12 0 32 0 C32 21.78 32 43.56 32 66 C21.44 66 10.88 66 0 66 C0 44.22 0 22.44 0 0 Z " fill="#000000" transform="translate(34,101)"/>
<path d="M0 0 C21.78 0 43.56 0 66 0 C66 10.56 66 21.12 66 32 C44.22 32 22.44 32 0 32 C0 21.44 0 10.88 0 0 Z " fill="#000000" transform="translate(345,34)"/>
<path d="M0 0 C21.78 0 43.56 0 66 0 C66 10.56 66 21.12 66 32 C44.22 32 22.44 32 0 32 C0 21.44 0 10.88 0 0 Z " fill="#000000" transform="translate(101,34)"/>
<path d="M0 0 C10.89 0 21.78 0 33 0 C33 10.89 33 21.78 33 33 C22.11 33 11.22 33 0 33 C0 22.11 0 11.22 0 0 Z " fill="#000000" transform="translate(412,412)"/>
<path d="M0 0 C10.89 0 21.78 0 33 0 C33 10.89 33 21.78 33 33 C22.11 33 11.22 33 0 33 C0 22.11 0 11.22 0 0 Z " fill="#000000" transform="translate(67,412)"/>
<path d="M0 0 C10.89 0 21.78 0 33 0 C33 10.89 33 21.78 33 33 C22.11 33 11.22 33 0 33 C0 22.11 0 11.22 0 0 Z " fill="#000000" transform="translate(167,323)"/>
<path d="M0 0 C10.89 0 21.78 0 33 0 C33 10.89 33 21.78 33 33 C22.11 33 11.22 33 0 33 C0 22.11 0 11.22 0 0 Z " fill="#000000" transform="translate(412,67)"/>
<path d="M0 0 C10.89 0 21.78 0 33 0 C33 10.89 33 21.78 33 33 C22.11 33 11.22 33 0 33 C0 22.11 0 11.22 0 0 Z " fill="#000000" transform="translate(67,67)"/>
</svg>
