<?xml version="1.0" encoding="UTF-8"?>
<svg version="1.1" xmlns="http://www.w3.org/2000/svg" width="512" height="512">
<path d="M0 0 C109.56 0 219.12 0 332 0 C332 9.9 332 19.8 332 30 C341.9 30 351.8 30 362 30 C362 169.26 362 308.52 362 452 C352.1 452 342.2 452 332 452 C332 461.9 332 471.8 332 482 C322.1 482 312.2 482 302 482 C302 491.9 302 501.8 302 512 C212.24 512 122.48 512 30 512 C30 502.1 30 492.2 30 482 C20.1 482 10.2 482 0 482 C0 472.1 0 462.2 0 452 C-9.9 452 -19.8 452 -30 452 C-30 312.74 -30 173.48 -30 30 C-20.1 30 -10.2 30 0 30 C0 20.1 0 10.2 0 0 Z " fill="#DAE0E7" transform="translate(90,0)"/>
<path d="M0 0 C109.56 0 219.12 0 332 0 C332 9.9 332 19.8 332 30 C341.9 30 351.8 30 362 30 C362 169.26 362 308.52 362 452 C352.1 452 342.2 452 332 452 C332 461.9 332 471.8 332 482 C322.1 482 312.2 482 302 482 C302 491.9 302 501.8 302 512 C212.24 512 122.48 512 30 512 C30 502.1 30 492.2 30 482 C20.1 482 10.2 482 0 482 C0 472.1 0 462.2 0 452 C-9.9 452 -19.8 452 -30 452 C-30 312.74 -30 173.48 -30 30 C-20.1 30 -10.2 30 0 30 C0 20.1 0 10.2 0 0 Z M1 30 C1 159.36 1 288.72 1 422 C10.57 422 20.14 422 30 422 C30 431.9 30 441.8 30 452 C39.9 452 49.8 452 60 452 C60 421.97 60 391.94 60 361 C90.03 361 120.06 361 151 361 C151 391.03 151 421.06 151 452 C160.9 452 170.8 452 181 452 C181 421.97 181 391.94 181 361 C211.03 361 241.06 361 272 361 C272 391.03 272 421.06 272 452 C281.9 452 291.8 452 302 452 C302 442.1 302 432.2 302 422 C311.57 422 321.14 422 331 422 C331 292.64 331 163.28 331 30 C222.1 30 113.2 30 1 30 Z " fill="#A0A7B3" transform="translate(90,0)"/>
<path d="M0 0 C89.76 0 179.52 0 272 0 C272 39.93 272 79.86 272 121 C262.1 121 252.2 121 242 121 C242 130.9 242 140.8 242 151 C172.04 151 102.08 151 30 151 C30 141.1 30 131.2 30 121 C20.1 121 10.2 121 0 121 C0 81.07 0 41.14 0 0 Z " fill="#58B354" transform="translate(120,60)"/>
<path d="M0 0 C89.1 0 178.2 0 270 0 C270 39.27 270 78.54 270 119 C260.43 119 250.86 119 241 119 C241 89.3 241 59.6 241 29 C171.04 29 101.08 29 29 29 C29 58.7 29 88.4 29 119 C19.43 119 9.86 119 0 119 C0 79.73 0 40.46 0 0 Z " fill="#000000" transform="translate(121,61)"/>
<path d="M0 0 C9.9 0 19.8 0 30 0 C30 139.26 30 278.52 30 422 C20.1 422 10.2 422 0 422 C0 282.74 0 143.48 0 0 Z " fill="#000000" transform="translate(422,30)"/>
<path d="M0 0 C9.9 0 19.8 0 30 0 C30 139.26 30 278.52 30 422 C20.1 422 10.2 422 0 422 C0 282.74 0 143.48 0 0 Z " fill="#000000" transform="translate(60,30)"/>
<path d="M0 0 C109.56 0 219.12 0 332 0 C332 9.9 332 19.8 332 30 C222.44 30 112.88 30 0 30 C0 20.1 0 10.2 0 0 Z " fill="#000000" transform="translate(90,0)"/>
<path d="M0 0 C108.9 0 217.8 0 330 0 C330 9.9 330 19.8 330 30 C221.1 30 112.2 30 0 30 C0 20.1 0 10.2 0 0 Z " fill="#F6F8F9" transform="translate(91,30)"/>
<path d="M0 0 C69.3 0 138.6 0 210 0 C210 29.37 210 58.74 210 89 C200.1 89 190.2 89 180 89 C180 69.53 180 50.06 180 30 C130.5 30 81 30 30 30 C30 49.47 30 68.94 30 89 C20.1 89 10.2 89 0 89 C0 59.63 0 30.26 0 0 Z " fill="#B1D041" transform="translate(151,91)"/>
<path d="M0 0 C89.76 0 179.52 0 272 0 C272 9.9 272 19.8 272 30 C182.24 30 92.48 30 0 30 C0 20.1 0 10.2 0 0 Z " fill="#000000" transform="translate(120,482)"/>
<path d="M0 0 C29.7 0 59.4 0 90 0 C90 29.7 90 59.4 90 90 C60.3 90 30.6 90 0 90 C0 60.3 0 30.6 0 0 Z " fill="#7B232F" transform="translate(271,362)"/>
<path d="M0 0 C29.7 0 59.4 0 90 0 C90 29.7 90 59.4 90 90 C60.3 90 30.6 90 0 90 C0 60.3 0 30.6 0 0 Z " fill="#7B232F" transform="translate(151,362)"/>
<path d="M0 0 C69.3 0 138.6 0 210 0 C210 9.57 210 19.14 210 29 C140.7 29 71.4 29 0 29 C0 19.43 0 9.86 0 0 Z " fill="#000000" transform="translate(151,181)"/>
<path d="M0 0 C9.9 0 19.8 0 30 0 C30 9.9 30 19.8 30 30 C39.9 30 49.8 30 60 30 C60 39.9 60 49.8 60 60 C50.1 60 40.2 60 30 60 C30 69.9 30 79.8 30 90 C20.1 90 10.2 90 0 90 C0 80.1 0 70.2 0 60 C-9.9 60 -19.8 60 -30 60 C-30 50.1 -30 40.2 -30 30 C-20.1 30 -10.2 30 0 30 C0 20.1 0 10.2 0 0 Z " fill="#5F6C75" transform="translate(301,241)"/>
<path d="M0 0 C0.33 0 0.66 0 1 0 C1 149.16 1 298.32 1 452 C-8.9 452 -18.8 452 -29 452 C-29 432.2 -29 412.4 -29 392 C-19.43 392 -9.86 392 0 392 C0 262.64 0 133.28 0 0 Z " fill="#99A0AA" transform="translate(421,30)"/>
<path d="M0 0 C0.33 0 0.66 0 1 0 C1 129.36 1 258.72 1 392 C10.57 392 20.14 392 30 392 C30 411.8 30 431.6 30 452 C20.1 452 10.2 452 0 452 C0 302.84 0 153.68 0 0 Z " fill="#99A0AA" transform="translate(90,30)"/>
<path d="M0 0 C89.76 0 179.52 0 272 0 C272 39.93 272 79.86 272 121 C262.1 121 252.2 121 242 121 C242 130.9 242 140.8 242 151 C172.04 151 102.08 151 30 151 C30 141.1 30 131.2 30 121 C20.1 121 10.2 121 0 121 C0 81.07 0 41.14 0 0 Z M1 1 C1 40.27 1 79.54 1 120 C10.57 120 20.14 120 30 120 C30 90.3 30 60.6 30 30 C99.96 30 169.92 30 242 30 C242 59.7 242 89.4 242 120 C251.57 120 261.14 120 271 120 C271 80.73 271 41.46 271 1 C181.9 1 92.8 1 1 1 Z M31 31 C31 60.37 31 89.74 31 120 C100.3 120 169.6 120 241 120 C241 90.63 241 61.26 241 31 C171.7 31 102.4 31 31 31 Z M31 121 C31 130.57 31 140.14 31 150 C100.3 150 169.6 150 241 150 C241 140.43 241 130.86 241 121 C171.7 121 102.4 121 31 121 Z " fill="#42453F" transform="translate(120,60)"/>
<path d="M0 0 C9.9 0 19.8 0 30 0 C30 9.9 30 19.8 30 30 C20.1 30 10.2 30 0 30 C0 20.1 0 10.2 0 0 Z " fill="#000000" transform="translate(392,452)"/>
<path d="M0 0 C9.9 0 19.8 0 30 0 C30 9.9 30 19.8 30 30 C20.1 30 10.2 30 0 30 C0 20.1 0 10.2 0 0 Z " fill="#000000" transform="translate(90,452)"/>
<path d="M0 0 C9.9 0 19.8 0 30 0 C30 9.9 30 19.8 30 30 C20.1 30 10.2 30 0 30 C0 20.1 0 10.2 0 0 Z " fill="#FC3838" transform="translate(301,392)"/>
<path d="M0 0 C9.9 0 19.8 0 30 0 C30 9.9 30 19.8 30 30 C20.1 30 10.2 30 0 30 C0 20.1 0 10.2 0 0 Z " fill="#FC3838" transform="translate(181,392)"/>
<path d="M0 0 C9.9 0 19.8 0 30 0 C30 9.9 30 19.8 30 30 C20.1 30 10.2 30 0 30 C0 20.1 0 10.2 0 0 Z " fill="#5F5ACE" transform="translate(211,271)"/>
<path d="M0 0 C9.9 0 19.8 0 30 0 C30 9.9 30 19.8 30 30 C20.1 30 10.2 30 0 30 C0 20.1 0 10.2 0 0 Z " fill="#605BCE" transform="translate(151,271)"/>
<path d="M0 0 C0.33 0 0.66 0 1 0 C1 39.6 1 79.2 1 120 C10.57 120 20.14 120 30 120 C30 90.3 30 60.6 30 30 C99.63 30 169.26 30 241 30 C241 30.33 241 30.66 241 31 C171.7 31 102.4 31 31 31 C31 60.37 31 89.74 31 120 C100.3 120 169.6 120 241 120 C241 120.33 241 120.66 241 121 C171.7 121 102.4 121 31 121 C31 130.9 31 140.8 31 151 C30.67 151 30.34 151 30 151 C30 141.1 30 131.2 30 121 C20.1 121 10.2 121 0 121 C0 81.07 0 41.14 0 0 Z " fill="#60783D" transform="translate(120,60)"/>
</svg>
