<?xml version="1.0" encoding="UTF-8"?>
<svg version="1.1" xmlns="http://www.w3.org/2000/svg" width="512" height="512">
<path d="M0 0 C15.18 0 30.36 0 46 0 C46 10.89 46 21.78 46 33 C56.89 33 67.78 33 79 33 C79 43.89 79 54.78 79 66 C89.89 66 100.78 66 112 66 C112 44.22 112 22.44 112 0 C145.33 0 178.66 0 213 0 C213 66 213 132 213 200 C223.89 200 234.78 200 246 200 C246 210.89 246 221.78 246 233 C256.89 233 267.78 233 279 233 C279 244.55 279 256.1 279 268 C268.11 268 257.22 268 246 268 C246 348.52 246 429.04 246 512 C194.19 512 142.38 512 89 512 C89 446 89 380 89 312 C45.44 312 1.88 312 -43 312 C-43 378 -43 444 -43 512 C-94.81 512 -146.62 512 -200 512 C-200 431.48 -200 350.96 -200 268 C-210.89 268 -221.78 268 -233 268 C-233 256.45 -233 244.9 -233 233 C-222.11 233 -211.22 233 -200 233 C-200 222.11 -200 211.22 -200 200 C-189.11 200 -178.22 200 -167 200 C-167 188.78 -167 177.56 -167 166 C-155.78 166 -144.56 166 -133 166 C-133 155.11 -133 144.22 -133 133 C-122.11 133 -111.22 133 -100 133 C-100 122.11 -100 111.22 -100 100 C-89.11 100 -78.22 100 -67 100 C-67 88.78 -67 77.56 -67 66 C-55.78 66 -44.56 66 -33 66 C-33 55.11 -33 44.22 -33 33 C-22.11 33 -11.22 33 0 33 C0 22.11 0 11.22 0 0 Z M1 34 C1 44.56 1 55.12 1 66 C15.52 66 30.04 66 45 66 C45 55.44 45 44.88 45 34 C30.48 34 15.96 34 1 34 Z M146 34 C146 67 146 100 146 134 C135.11 134 124.22 134 113 134 C113 144.56 113 155.12 113 166 C123.89 166 134.78 166 146 166 C146 177.22 146 188.44 146 200 C156.56 200 167.12 200 178 200 C178 145.22 178 90.44 178 34 C167.44 34 156.88 34 146 34 Z M-32 67 C-32 77.89 -32 88.78 -32 100 C-21.44 100 -10.88 100 0 100 C0 89.11 0 78.22 0 67 C-10.56 67 -21.12 67 -32 67 Z M46 67 C46 77.89 46 88.78 46 100 C56.56 100 67.12 100 78 100 C78 89.11 78 78.22 78 67 C67.44 67 56.88 67 46 67 Z M-66 101 C-66 111.56 -66 122.12 -66 133 C-55.11 133 -44.22 133 -33 133 C-33 122.44 -33 111.88 -33 101 C-43.89 101 -54.78 101 -66 101 Z M79 101 C79 111.56 79 122.12 79 133 C89.89 133 100.78 133 112 133 C112 122.44 112 111.88 112 101 C101.11 101 90.22 101 79 101 Z M-99 134 C-99 144.56 -99 155.12 -99 166 C-88.44 166 -77.88 166 -67 166 C-67 155.44 -67 144.88 -67 134 C-77.56 134 -88.12 134 -99 134 Z M-132 167 C-132 177.89 -132 188.78 -132 200 C-121.44 200 -110.88 200 -100 200 C-100 189.11 -100 178.22 -100 167 C-110.56 167 -121.12 167 -132 167 Z M-166 201 C-166 211.56 -166 222.12 -166 233 C-155.11 233 -144.22 233 -133 233 C-133 222.44 -133 211.88 -133 201 C-143.89 201 -154.78 201 -166 201 Z M179 201 C179 211.56 179 222.12 179 233 C189.89 233 200.78 233 212 233 C212 222.44 212 211.88 212 201 C201.11 201 190.22 201 179 201 Z M-199 234 C-199 244.89 -199 255.78 -199 267 C-188.44 267 -177.88 267 -167 267 C-167 256.11 -167 245.22 -167 234 C-177.56 234 -188.12 234 -199 234 Z M213 234 C213 244.89 213 255.78 213 267 C223.56 267 234.12 267 245 267 C245 256.11 245 245.22 245 234 C234.44 234 223.88 234 213 234 Z " fill="#000000" transform="translate(233,0)"/>
</svg>
