<?xml version="1.0" encoding="UTF-8"?>
<svg version="1.1" xmlns="http://www.w3.org/2000/svg" width="512" height="512">
<path d="M0 0 C125.07 0 250.14 0 379 0 C379 47.52 379 95.04 379 144 C389.56 144 400.12 144 411 144 C411 133.11 411 122.22 411 111 C433.44 111 455.88 111 479 111 C479 121.89 479 132.78 479 144 C489.89 144 500.78 144 512 144 C512 166.44 512 188.88 512 212 C501.11 212 490.22 212 479 212 C479 222.89 479 233.78 479 245 C468.11 245 457.22 245 446 245 C446 256.22 446 267.44 446 279 C434.78 279 423.56 279 412 279 C412 289.89 412 300.78 412 312 C401.11 312 390.22 312 379 312 C379 378 379 444 379 512 C253.93 512 128.86 512 0 512 C0 343.04 0 174.08 0 0 Z " fill="#FDFDFC" transform="translate(0,0)"/>
<path d="M0 0 C125.07 0 250.14 0 379 0 C379 47.52 379 95.04 379 144 C389.56 144 400.12 144 411 144 C411 133.11 411 122.22 411 111 C433.44 111 455.88 111 479 111 C479 121.89 479 132.78 479 144 C489.89 144 500.78 144 512 144 C512 166.44 512 188.88 512 212 C501.11 212 490.22 212 479 212 C479 222.89 479 233.78 479 245 C468.11 245 457.22 245 446 245 C446 256.22 446 267.44 446 279 C434.78 279 423.56 279 412 279 C412 289.89 412 300.78 412 312 C401.11 312 390.22 312 379 312 C379 378 379 444 379 512 C253.93 512 128.86 512 0 512 C0 343.04 0 174.08 0 0 Z M33 33 C33 180.18 33 327.36 33 479 C135.96 479 238.92 479 345 479 C345 445.67 345 412.34 345 378 C334.11 378 323.22 378 312 378 C312 367.11 312 356.22 312 345 C322.89 345 333.78 345 345 345 C345 333.78 345 322.56 345 311 C355.89 311 366.78 311 378 311 C378 300.11 378 289.22 378 278 C389.22 278 400.44 278 412 278 C412 267.11 412 256.22 412 245 C422.89 245 433.78 245 445 245 C445 233.78 445 222.56 445 211 C455.89 211 466.78 211 478 211 C478 189.22 478 167.44 478 145 C456.22 145 434.44 145 412 145 C412 155.89 412 166.78 412 178 C400.78 178 389.56 178 378 178 C378 188.89 378 199.78 378 211 C367.11 211 356.22 211 345 211 C345 152.26 345 93.52 345 33 C242.04 33 139.08 33 33 33 Z " fill="#000000" transform="translate(0,0)"/>
<path d="M0 0 C21.78 0 43.56 0 66 0 C66 21.78 66 43.56 66 66 C55.11 66 44.22 66 33 66 C33 77.22 33 88.44 33 100 C22.11 100 11.22 100 0 100 C0 110.89 0 121.78 0 133 C-11.22 133 -22.44 133 -34 133 C-34 143.89 -34 154.78 -34 166 C-44.89 166 -55.78 166 -67 166 C-67 177.22 -67 188.44 -67 200 C-77.89 200 -88.78 200 -100 200 C-100 210.89 -100 221.78 -100 233 C-89.11 233 -78.22 233 -67 233 C-67 233.33 -67 233.66 -67 234 C-77.89 234 -88.78 234 -100 234 C-100 244.89 -100 255.78 -100 267 C-111.22 267 -122.44 267 -134 267 C-134 255.78 -134 244.56 -134 233 C-144.89 233 -155.78 233 -167 233 C-167 222.11 -167 211.22 -167 200 C-177.89 200 -188.78 200 -200 200 C-200 189.11 -200 178.22 -200 167 C-189.11 167 -178.22 167 -167 167 C-167 155.78 -167 144.56 -167 133 C-156.11 133 -145.22 133 -134 133 C-134 122.11 -134 111.22 -134 100 C-123.11 100 -112.22 100 -101 100 C-101 88.78 -101 77.56 -101 66 C-78.89 66 -56.78 66 -34 66 C-34 55.11 -34 44.22 -34 33 C-22.78 33 -11.56 33 0 33 C0 22.11 0 11.22 0 0 Z " fill="#FD9711" transform="translate(412,145)"/>
<path d="M0 0 C10.89 0 21.78 0 33 0 C33 22.11 33 44.22 33 67 C55.11 67 77.22 67 100 67 C100 77.89 100 88.78 100 100 C34 100 -32 100 -100 100 C-100 89.11 -100 78.22 -100 67 C-67 67 -34 67 0 67 C0 44.89 0 22.78 0 0 Z " fill="#000000" transform="translate(178,345)"/>
<path d="M0 0 C0.33 0 0.66 0 1 0 C1 47.52 1 95.04 1 144 C11.56 144 22.12 144 33 144 C33 133.11 33 122.22 33 111 C55.44 111 77.88 111 101 111 C101 121.89 101 132.78 101 144 C111.89 144 122.78 144 134 144 C134 166.44 134 188.88 134 212 C123.11 212 112.22 212 101 212 C101 222.89 101 233.78 101 245 C90.11 245 79.22 245 68 245 C68 256.22 68 267.44 68 279 C56.78 279 45.56 279 34 279 C34 289.89 34 300.78 34 312 C23.11 312 12.22 312 1 312 C1 378 1 444 1 512 C0.67 512 0.34 512 0 512 C0 446 0 380 0 312 C-10.89 312 -21.78 312 -33 312 C-33 311.67 -33 311.34 -33 311 C-22.11 311 -11.22 311 0 311 C0 300.11 0 289.22 0 278 C11.22 278 22.44 278 34 278 C34 267.11 34 256.22 34 245 C44.89 245 55.78 245 67 245 C67 233.78 67 222.56 67 211 C77.89 211 88.78 211 100 211 C100 189.22 100 167.44 100 145 C67 145 34 145 0 145 C0 97.15 0 49.3 0 0 Z " fill="#020100" transform="translate(378,0)"/>
<path d="M0 0 C73.26 0 146.52 0 222 0 C222 10.89 222 21.78 222 33 C148.74 33 75.48 33 0 33 C0 22.11 0 11.22 0 0 Z " fill="#000000" transform="translate(78,156)"/>
<path d="M0 0 C73.26 0 146.52 0 222 0 C222 10.89 222 21.78 222 33 C148.74 33 75.48 33 0 33 C0 22.11 0 11.22 0 0 Z " fill="#000000" transform="translate(78,78)"/>
<path d="M0 0 C11.22 0 22.44 0 34 0 C34 0.33 34 0.66 34 1 C23.11 1 12.22 1 1 1 C1 11.89 1 22.78 1 34 C11.89 34 22.78 34 34 34 C34 44.89 34 55.78 34 67 C44.89 67 55.78 67 67 67 C67 78.22 67 89.44 67 101 C44.89 101 22.78 101 0 101 C0 67.67 0 34.34 0 0 Z " fill="#F9D4A5" transform="translate(211,311)"/>
<path d="M0 0 C21.78 0 43.56 0 66 0 C66 21.78 66 43.56 66 66 C55.11 66 44.22 66 33 66 C33 55.11 33 44.22 33 33 C22.11 33 11.22 33 0 33 C0 22.11 0 11.22 0 0 Z " fill="#FFFEFE" transform="translate(412,145)"/>
<path d="M0 0 C10.89 0 21.78 0 33 0 C33 21.78 33 43.56 33 66 C22.11 66 11.22 66 0 66 C0 44.22 0 22.44 0 0 Z " fill="#000000" transform="translate(479,145)"/>
<path d="M0 0 C21.78 0 43.56 0 66 0 C66 10.56 66 21.12 66 32 C44.22 32 22.44 32 0 32 C0 21.44 0 10.88 0 0 Z " fill="#000000" transform="translate(412,112)"/>
<path d="M0 0 C11.22 0 22.44 0 34 0 C34 10.89 34 21.78 34 33 C22.78 33 11.56 33 0 33 C0 22.11 0 11.22 0 0 Z " fill="#050301" transform="translate(278,379)"/>
<path d="M0 0 C10.89 0 21.78 0 33 0 C33 11.22 33 22.44 33 34 C22.11 34 11.22 34 0 34 C0 22.78 0 11.56 0 0 Z " fill="#040200" transform="translate(245,278)"/>
<path d="M0 0 C11.22 0 22.44 0 34 0 C34 10.89 34 21.78 34 33 C22.78 33 11.56 33 0 33 C0 22.11 0 11.22 0 0 Z " fill="#040200" transform="translate(278,245)"/>
<path d="M0 0 C10.89 0 21.78 0 33 0 C33 10.89 33 21.78 33 33 C22.11 33 11.22 33 0 33 C0 22.11 0 11.22 0 0 Z " fill="#000000" transform="translate(212,312)"/>
<path d="M0 0 C10.89 0 21.78 0 33 0 C33 10.89 33 21.78 33 33 C22.11 33 11.22 33 0 33 C0 22.11 0 11.22 0 0 Z " fill="#000000" transform="translate(412,245)"/>
<path d="M0 0 C10.89 0 21.78 0 33 0 C33 10.89 33 21.78 33 33 C22.11 33 11.22 33 0 33 C0 22.11 0 11.22 0 0 Z " fill="#000000" transform="translate(312,212)"/>
<path d="M0 0 C10.56 0 21.12 0 32 0 C32 10.56 32 21.12 32 32 C21.44 32 10.88 32 0 32 C0 21.44 0 10.88 0 0 Z " fill="#000000" transform="translate(379,279)"/>
<path d="M0 0 C0.33 0 0.66 0 1 0 C1 47.52 1 95.04 1 144 C11.56 144 22.12 144 33 144 C33 133.11 33 122.22 33 111 C55.44 111 77.88 111 101 111 C101 121.89 101 132.78 101 144 C111.89 144 122.78 144 134 144 C134 144.33 134 144.66 134 145 C123.11 145 112.22 145 101 145 C101 166.78 101 188.56 101 211 C111.89 211 122.78 211 134 211 C134 211.33 134 211.66 134 212 C123.11 212 112.22 212 101 212 C101 222.89 101 233.78 101 245 C100.67 245 100.34 245 100 245 C100 234.11 100 223.22 100 212 C89.11 212 78.22 212 67 212 C67 211.67 67 211.34 67 211 C77.89 211 88.78 211 100 211 C100 189.22 100 167.44 100 145 C67 145 34 145 0 145 C0 97.15 0 49.3 0 0 Z M34 112 C34 122.56 34 133.12 34 144 C55.78 144 77.56 144 100 144 C100 133.44 100 122.88 100 112 C78.22 112 56.44 112 34 112 Z " fill="#716658" transform="translate(378,0)"/>
<path d="M0 0 C0.33 0 0.66 0 1 0 C1 11.22 1 22.44 1 34 C-10.22 34 -21.44 34 -33 34 C-33 44.89 -33 55.78 -33 67 C-43.89 67 -54.78 67 -66 67 C-66 133 -66 199 -66 267 C-66.33 267 -66.66 267 -67 267 C-67 201 -67 135 -67 67 C-77.89 67 -88.78 67 -100 67 C-100 66.67 -100 66.34 -100 66 C-89.11 66 -78.22 66 -67 66 C-67 55.11 -67 44.22 -67 33 C-44.89 33 -22.78 33 0 33 C0 22.11 0 11.22 0 0 Z M-66 34 C-66 44.56 -66 55.12 -66 66 C-55.44 66 -44.88 66 -34 66 C-34 55.44 -34 44.88 -34 34 C-44.56 34 -55.12 34 -66 34 Z " fill="#6B5538" transform="translate(445,245)"/>
</svg>
