<?xml version="1.0" encoding="UTF-8"?>
<svg version="1.1" xmlns="http://www.w3.org/2000/svg" width="512" height="512">
<path d="M0 0 C69.96 0 139.92 0 212 0 C212 10.89 212 21.78 212 33 C223.22 33 234.44 33 246 33 C246 43.89 246 54.78 246 66 C256.89 66 267.78 66 279 66 C279 77.22 279 88.44 279 100 C289.89 100 300.78 100 312 100 C312 169.96 312 239.92 312 312 C301.11 312 290.22 312 279 312 C279 323.22 279 334.44 279 346 C268.11 346 257.22 346 246 346 C246 356.89 246 367.78 246 379 C234.78 379 223.56 379 212 379 C212 389.89 212 400.78 212 412 C131.15 412 50.3 412 -33 412 C-33 423.22 -33 434.44 -33 446 C-43.89 446 -54.78 446 -66 446 C-66 456.89 -66 467.78 -66 479 C-76.89 479 -87.78 479 -99 479 C-99 489.89 -99 500.78 -99 512 C-121.44 512 -143.88 512 -167 512 C-167 501.11 -167 490.22 -167 479 C-177.89 479 -188.78 479 -200 479 C-200 456.56 -200 434.12 -200 411 C-189.11 411 -178.22 411 -167 411 C-167 400.11 -167 389.22 -167 378 C-156.11 378 -145.22 378 -134 378 C-134 367.11 -134 356.22 -134 345 C-122.78 345 -111.56 345 -100 345 C-100 264.15 -100 183.3 -100 100 C-89.11 100 -78.22 100 -67 100 C-67 88.78 -67 77.56 -67 66 C-56.11 66 -45.22 66 -34 66 C-34 55.11 -34 44.22 -34 33 C-22.78 33 -11.56 33 0 33 C0 22.11 0 11.22 0 0 Z " fill="#FC529F" transform="translate(200,0)"/>
<path d="M0 0 C10.89 0 21.78 0 33 0 C33 21.78 33 43.56 33 66 C80.52 66 128.04 66 177 66 C177 77.22 177 88.44 177 100 C187.89 100 198.78 100 210 100 C210 147.52 210 195.04 210 244 C199.11 244 188.22 244 177 244 C177 254.89 177 265.78 177 277 C129.48 277 81.96 277 33 277 C33 266.11 33 255.22 33 244 C21.78 244 10.56 244 -1 244 C-1 196.48 -1 148.96 -1 100 C-22.78 100 -44.56 100 -67 100 C-67 88.78 -67 77.56 -67 66 C-56.11 66 -45.22 66 -34 66 C-34 55.11 -34 44.22 -34 33 C-22.78 33 -11.56 33 0 33 C0 22.11 0 11.22 0 0 Z " fill="#82C8FE" transform="translate(201,34)"/>
<path d="M0 0 C69.96 0 139.92 0 212 0 C212 10.89 212 21.78 212 33 C223.22 33 234.44 33 246 33 C246 43.89 246 54.78 246 66 C256.89 66 267.78 66 279 66 C279 77.22 279 88.44 279 100 C289.89 100 300.78 100 312 100 C312 169.96 312 239.92 312 312 C301.11 312 290.22 312 279 312 C279 323.22 279 334.44 279 346 C268.11 346 257.22 346 246 346 C246 356.89 246 367.78 246 379 C234.78 379 223.56 379 212 379 C212 389.89 212 400.78 212 412 C131.15 412 50.3 412 -33 412 C-33 400.78 -33 389.56 -33 378 C47.85 378 128.7 378 212 378 C212 367.11 212 356.22 212 345 C222.89 345 233.78 345 245 345 C245 333.78 245 322.56 245 311 C255.89 311 266.78 311 278 311 C278 241.37 278 171.74 278 100 C267.11 100 256.22 100 245 100 C245 89.11 245 78.22 245 67 C234.11 67 223.22 67 212 67 C212 56.11 212 45.22 212 34 C142.37 34 72.74 34 1 34 C1 44.89 1 55.78 1 67 C-10.22 67 -21.44 67 -33 67 C-33 77.89 -33 88.78 -33 100 C-43.89 100 -54.78 100 -66 100 C-66 180.85 -66 261.7 -66 345 C-77.22 345 -88.44 345 -100 345 C-100 264.15 -100 183.3 -100 100 C-89.11 100 -78.22 100 -67 100 C-67 88.78 -67 77.56 -67 66 C-56.11 66 -45.22 66 -34 66 C-34 55.11 -34 44.22 -34 33 C-22.78 33 -11.56 33 0 33 C0 22.11 0 11.22 0 0 Z " fill="#0A0407" transform="translate(200,0)"/>
<path d="M0 0 C10.89 0 21.78 0 33 0 C33 69.96 33 139.92 33 212 C22.11 212 11.22 212 0 212 C0 142.04 0 72.08 0 0 Z " fill="#000000" transform="translate(479,100)"/>
<path d="M0 0 C69.96 0 139.92 0 212 0 C212 10.89 212 21.78 212 33 C142.04 33 72.08 33 0 33 C0 22.11 0 11.22 0 0 Z " fill="#000000" transform="translate(200,0)"/>
<path d="M0 0 C10.89 0 21.78 0 33 0 C33 21.78 33 43.56 33 66 C21.78 66 10.56 66 -1 66 C-1 76.89 -1 87.78 -1 99 C-23.03583101 99.76314566 -44.95117267 100.09544947 -67 100 C-67 88.78 -67 77.56 -67 66 C-56.11 66 -45.22 66 -34 66 C-34 55.11 -34 44.22 -34 33 C-22.78 33 -11.56 33 0 33 C0 22.11 0 11.22 0 0 Z " fill="#FC54A0" transform="translate(201,34)"/>
<path d="M0 0 C47.52 0 95.04 0 144 0 C144 10.89 144 21.78 144 33 C96.48 33 48.96 33 0 33 C0 22.11 0 11.22 0 0 Z " fill="#000000" transform="translate(234,312)"/>
<path d="M0 0 C10.89 0 21.78 0 33 0 C33 47.52 33 95.04 33 144 C22.11 144 11.22 144 0 144 C0 96.48 0 48.96 0 0 Z " fill="#000000" transform="translate(412,134)"/>
<path d="M0 0 C10.89 0 21.78 0 33 0 C33 47.52 33 95.04 33 144 C22.11 144 11.22 144 0 144 C0 96.48 0 48.96 0 0 Z " fill="#000000" transform="translate(167,134)"/>
<path d="M0 0 C47.52 0 95.04 0 144 0 C144 10.89 144 21.78 144 33 C96.48 33 48.96 33 0 33 C0 22.11 0 11.22 0 0 Z " fill="#000000" transform="translate(234,67)"/>
<path d="M0 0 C22.11 0 44.22 0 67 0 C67 10.89 67 21.78 67 33 C44.89 33 22.78 33 0 33 C0 22.11 0 11.22 0 0 Z " fill="#010000" transform="translate(33,479)"/>
<path d="M0 0 C10.89 0 21.78 0 33 0 C33 22.11 33 44.22 33 67 C22.11 67 11.22 67 0 67 C0 44.89 0 22.78 0 0 Z " fill="#010000" transform="translate(0,412)"/>
<path d="M0 0 C11.22 0 22.44 0 34 0 C34 11.22 34 22.44 34 34 C22.78 34 11.56 34 0 34 C0 22.78 0 11.56 0 0 Z " fill="#FDF8FA" transform="translate(100,345)"/>
<path d="M0 0 C11.22 0 22.44 0 34 0 C34 11.22 34 22.44 34 34 C22.78 34 11.56 34 0 34 C0 22.78 0 11.56 0 0 Z " fill="#050608" transform="translate(200,278)"/>
<path d="M0 0 C10.89 0 21.78 0 33 0 C33 11.22 33 22.44 33 34 C22.11 34 11.22 34 0 34 C0 22.78 0 11.56 0 0 Z " fill="#030405" transform="translate(379,278)"/>
<path d="M0 0 C10.89 0 21.78 0 33 0 C33 11.22 33 22.44 33 34 C22.11 34 11.22 34 0 34 C0 22.78 0 11.56 0 0 Z " fill="#FCFCFD" transform="translate(234,100)"/>
<path d="M0 0 C11.22 0 22.44 0 34 0 C34 10.89 34 21.78 34 33 C22.78 33 11.56 33 0 33 C0 22.11 0 11.22 0 0 Z " fill="#050505" transform="translate(200,100)"/>
<path d="M0 0 C10.89 0 21.78 0 33 0 C33 11.22 33 22.44 33 34 C22.11 34 11.22 34 0 34 C0 22.78 0 11.56 0 0 Z " fill="#FDFBFC" transform="translate(134,100)"/>
<path d="M0 0 C10.89 0 21.78 0 33 0 C33 10.89 33 21.78 33 33 C22.11 33 11.22 33 0 33 C0 22.11 0 11.22 0 0 Z " fill="#000000" transform="translate(134,412)"/>
<path d="M0 0 C10.89 0 21.78 0 33 0 C33 10.89 33 21.78 33 33 C22.11 33 11.22 33 0 33 C0 22.11 0 11.22 0 0 Z " fill="#FFFDFE" transform="translate(34,412)"/>
<path d="M0 0 C10.89 0 21.78 0 33 0 C33 10.89 33 21.78 33 33 C22.11 33 11.22 33 0 33 C0 22.11 0 11.22 0 0 Z " fill="#FFFEFE" transform="translate(67,379)"/>
<path d="M0 0 C10.89 0 21.78 0 33 0 C33 10.89 33 21.78 33 33 C22.11 33 11.22 33 0 33 C0 22.11 0 11.22 0 0 Z " fill="#030303" transform="translate(34,379)"/>
<path d="M0 0 C10.89 0 21.78 0 33 0 C33 10.89 33 21.78 33 33 C22.11 33 11.22 33 0 33 C0 22.11 0 11.22 0 0 Z " fill="#000000" transform="translate(412,345)"/>
<path d="M0 0 C10.89 0 21.78 0 33 0 C33 10.89 33 21.78 33 33 C22.11 33 11.22 33 0 33 C0 22.11 0 11.22 0 0 Z " fill="#000000" transform="translate(67,345)"/>
<path d="M0 0 C10.89 0 21.78 0 33 0 C33 10.89 33 21.78 33 33 C22.11 33 11.22 33 0 33 C0 22.11 0 11.22 0 0 Z " fill="#010001" transform="translate(445,312)"/>
<path d="M0 0 C10.89 0 21.78 0 33 0 C33 10.89 33 21.78 33 33 C22.11 33 11.22 33 0 33 C0 22.11 0 11.22 0 0 Z " fill="#FDFEFF" transform="translate(201,134)"/>
<path d="M0 0 C10.89 0 21.78 0 33 0 C33 10.89 33 21.78 33 33 C22.11 33 11.22 33 0 33 C0 22.11 0 11.22 0 0 Z " fill="#010102" transform="translate(379,100)"/>
<path d="M0 0 C10.89 0 21.78 0 33 0 C33 10.89 33 21.78 33 33 C22.11 33 11.22 33 0 33 C0 22.11 0 11.22 0 0 Z " fill="#FF53A0" transform="translate(167,100)"/>
<path d="M0 0 C10.89 0 21.78 0 33 0 C33 10.89 33 21.78 33 33 C22.11 33 11.22 33 0 33 C0 22.11 0 11.22 0 0 Z " fill="#FFFFFF" transform="translate(167,67)"/>
<path d="M0 0 C10.89 0 21.78 0 33 0 C33 10.89 33 21.78 33 33 C22.11 33 11.22 33 0 33 C0 22.11 0 11.22 0 0 Z " fill="#000000" transform="translate(134,67)"/>
<path d="M0 0 C10.89 0 21.78 0 33 0 C33 10.89 33 21.78 33 33 C22.11 33 11.22 33 0 33 C0 22.11 0 11.22 0 0 Z " fill="#FEFCFD" transform="translate(201,34)"/>
<path d="M0 0 C10.89 0 21.78 0 33 0 C33 10.89 33 21.78 33 33 C22.11 33 11.22 33 0 33 C0 22.11 0 11.22 0 0 Z " fill="#010101" transform="translate(167,34)"/>
<path d="M0 0 C10.56 0 21.12 0 32 0 C32 10.89 32 21.78 32 33 C21.44 33 10.88 33 0 33 C0 22.11 0 11.22 0 0 Z " fill="#000000" transform="translate(446,67)"/>
<path d="M0 0 C10.89 0 21.78 0 33 0 C33 10.56 33 21.12 33 32 C22.11 32 11.22 32 0 32 C0 21.44 0 10.88 0 0 Z " fill="#000000" transform="translate(412,34)"/>
<path d="M0 0 C10.56 0 21.12 0 32 0 C32 10.56 32 21.12 32 32 C21.44 32 10.88 32 0 32 C0 21.44 0 10.88 0 0 Z " fill="#000000" transform="translate(101,446)"/>
<path d="M0 0 C0.33 0 0.66 0 1 0 C1 10.89 1 21.78 1 33 C11.89 33 22.78 33 34 33 C34 33.33 34 33.66 34 34 C12.22 34 -9.56 34 -32 34 C-32 66.67 -32 99.34 -32 133 C-10.22 133 11.56 133 34 133 C34 122.11 34 111.22 34 100 C44.89 100 55.78 100 67 100 C67 89.11 67 78.22 67 67 C67.33 67 67.66 67 68 67 C68 77.89 68 88.78 68 100 C78.89 100 89.78 100 101 100 C101 100.33 101 100.66 101 101 C90.11 101 79.22 101 68 101 C68 111.89 68 122.78 68 134 C57.11 134 46.22 134 35 134 C35 144.89 35 155.78 35 167 C34.67 167 34.34 167 34 167 C34 156.11 34 145.22 34 134 C11.89 134 -10.22 134 -33 134 C-33 111.89 -33 89.78 -33 67 C-43.89 67 -54.78 67 -66 67 C-66 66.67 -66 66.34 -66 66 C-55.11 66 -44.22 66 -33 66 C-33 55.11 -33 44.22 -33 33 C-22.11 33 -11.22 33 0 33 C0 22.11 0 11.22 0 0 Z M35 101 C35 111.56 35 122.12 35 133 C45.56 133 56.12 133 67 133 C67 122.44 67 111.88 67 101 C56.44 101 45.88 101 35 101 Z " fill="#89596F" transform="translate(66,345)"/>
<path d="M0 0 C0.33 0 0.66 0 1 0 C1 10.89 1 21.78 1 33 C11.89 33 22.78 33 34 33 C34 33.33 34 33.66 34 34 C23.11 34 12.22 34 1 34 C1 44.89 1 55.78 1 67 C-9.89 67 -20.78 67 -32 67 C-32 77.89 -32 88.78 -32 100 C-32.33 100 -32.66 100 -33 100 C-33 77.89 -33 55.78 -33 33 C-22.11 33 -11.22 33 0 33 C0 22.11 0 11.22 0 0 Z M-32 34 C-32 44.56 -32 55.12 -32 66 C-21.44 66 -10.88 66 0 66 C0 55.44 0 44.88 0 34 C-10.56 34 -21.12 34 -32 34 Z " fill="#591C38" transform="translate(133,412)"/>
<path d="M0 0 C11.22 0 22.44 0 34 0 C34 10.89 34 21.78 34 33 C44.89 33 55.78 33 67 33 C67 44.22 67 55.44 67 67 C66.67 67 66.34 67 66 67 C66 56.11 66 45.22 66 34 C55.44 34 44.88 34 34 34 C34 44.89 34 55.78 34 67 C33.67 67 33.34 67 33 67 C33 56.11 33 45.22 33 34 C22.11 34 11.22 34 0 34 C0 33.67 0 33.34 0 33 C10.89 33 21.78 33 33 33 C33 22.44 33 11.88 33 1 C22.11 1 11.22 1 0 1 C0 0.67 0 0.34 0 0 Z " fill="#501A32" transform="translate(412,33)"/>
</svg>
